<svg
  version="1.0"
  xmlns="http://www.w3.org/2000/svg"
  fill="white"
  viewBox="0 0 650 640"
>
  <path
    d="M315 7c-4 3-6 5-26 31A1192 1192 0 0130 292c-15 10-21 14-23 19-3 6-3 11 1 17 2 4 5 7 16 15a1163 1163 0 01291 290c6 2 14 2 18 0 3-2 2-1 24-31a1188 1188 0 01270-260c12-7 16-12 16-20 0-9-5-18-12-21l-22-15a1056 1056 0 01-194-178c-22-25-49-58-65-82-9-12-11-15-16-18-7-4-11-4-19-1zm21 82c7 2 16 6 23 11a971 971 0 01197 206c3 6 4 8 4 14 0 8-2 13-10 26-22 37-98 118-157 168-27 22-48 36-58 39s-15 3-24-2c-22-12-44-28-90-71-53-48-90-88-119-129-12-17-13-19-13-30 0-8 0-9 4-17 6-12 27-40 53-69 13-15 61-63 81-81a719 719 0 0186-66c5-1 18-1 23 1z"
  />
  <path
    d="M320 102c-6 1-10 4-23 13a936 936 0 00-176 171c-14 18-17 25-17 34 0 6 0 8 4 15 2 5 7 12 11 17l12 15a1133 1133 0 00179 169l1-70v-71l-3-1c-16-6-16-6-15-4 2 4 1 12-1 17-3 5-5 7-8 6-5-1-7-7-7-16l1-10c1-2 0-2-4 2-7 6-15 10-28 14h-29c-7-3-7-4 1-8s17-6 44-11l13-3-5-4c-16-8-23-13-29-17l-6-5-5 4a60 60 0 01-39 18c-9 1-19 0-19-2s10-9 20-13l23-8 15-4-3-3-6-7c-3-4-3-4-5-3-8 5-40 5-42 0a51 51 0 0140-5l-5-9c-5-10-5-10-16-7-8 3-18 3-23 0l-3-2c0-2 6-4 16-5 9-2 10-2 14 0l4 1-3-7-3-9c0-1-2-2-3-1-3 2-10 3-14 2-5 0-14-4-14-5 0-2 5-3 17-3l11 1-2-2c-4-4-9-11-10-16-2-7-3-26-2-27 2-1 8 7 11 14 2 3 3 7 3 12 1 8 3 13 3 8 0-3 4-12 7-15 4-4 4-3 3 6 0 8-2 14-6 19l-2 4 4 9a73 73 0 016 11c1 2 2 1 2-6-1-5 0-9 1-11l8-15c3-2 4-1 5 8 1 11 0 16-5 25l-5 9 2 3 7 10 5 6-1-8-1-9c-1-4 5-20 10-27 2-3 4-1 6 7 2 10 0 20-8 35l-2 7 15 14c2 1 2 0 2-9a81 81 0 0114-44c2-3 2-3 3-2 2 3 3 17 3 26-1 9-7 20-15 29l-2 3 4 3c6 4 27 13 28 13 2 0 2-1 0-4-2-8-4-23-2-30 1-7 5-15 7-15 3 0 7 20 7 31 0 6-3 14-6 18-2 2-1 2 5 4l7 3 10 3v-78h-2c-2 0-3-1-3-12v-11l-5-4-11-10-6-5-5 10c-4 9-5 10-7 10-5 1-5-2 1-14l6-12-3-4a158 158 0 01-32-71l4-1c2 0 3 1 6 12 7 22 17 42 26 53l3 4 5-7c8-11 12-16 21-25l8-9-5-6a75 75 0 01-18-37c0-6 1-9 4-8 2 1 2 1 4 9 2 12 9 24 18 34l3 3 5-4c13-10 36-24 42-24 2 0 3 1 3 2 1 3 1 3-10 9-10 5-26 15-32 20-1 1-2 2-1 3 7 6 26 18 31 20 2 0 3 0 3 7v8h8v-7l1-7 6-1 6 1 1 7v7h8v-7c0-7 0-7 3-8h3v-42h5v21c0 20 0 21 2 22 2 0 2 1 2 7v6h8v-6l1-7h12c2 1 2 2 2 7v6h8v-7l1-7h11l2 1-1 21 1 21 21 1 21 2 1 15c0 13-1 13-3 14h-2v89l4-4c15-17 41-50 46-60 3-7 3-7 3-14-1-10-3-14-13-29-32-44-77-92-128-137-51-44-70-57-84-53zm45 60l7 2v7l-12-2c-13-2-31-1-41 1-7 1-7 1-9-1-3-4 2-7 13-8 10-1 33 0 42 1zm-77 17l-7 5-6 3-8 5c-2 0-4-3-3-5 0-2 10-8 16-11 4-2 5-2 6 0l2 3zm-48 31c1 2 0 3-4 8-7 7-12 15-15 21-2 5-4 7-7 6s-3-4 2-12c4-7 6-11 13-19 6-6 9-8 11-4zm7 155c4 4 2 10-5 14-10 7-21 1-16-8l6-5c4-3 5-3 9-3l6 3z"
  />
  <path
    d="M313 229c-11 11-12 13-19 24l-6 9 7 6c13 12 11 11 34 11l20-1c2-1 0-42-1-42-2 0-13-7-18-11l-6-5c-2-1-3 0-11 9zM320 298l-1 5v4h9v-5c0-4-1-5-4-5l-4 1zM336 298v5c1 3 1 3 5 4h4v-5c0-5 0-5-4-5l-5 1zM354 302v5h4c4-1 5-1 5-4 0-5-1-6-5-6h-4v5zM371 298v5c1 3 1 3 5 4h4v-5c0-5 0-5-4-5l-5 1zM389 298l-1 5 1 3h9v-4c0-4-1-5-4-5l-5 1zM406 299l-1 5c1 2 1 3 5 3h5v-9l-5-1c-3 0-4 0-4 2zM424 298l-1 5v4h4l5-1v-4c0-4-1-5-4-5l-4 1zM441 298v9h8v-10h-4l-4 1zM459 298l-1 5v4h9v-5c0-4-1-5-4-5l-4 1zM476 298l-1 5v4h9v-5c0-4-1-5-4-5l-4 1zM367 326l-1 7v7h10v-15h-4l-5 1zM443 364v15h11v-15h-11zM390 365v13h12v-13h-12zM319 412l81 1c75 1 80 0 80-1 0-2-4-2-80-2-77 0-81 0-81 2zM341 458v11h12v-22l-6-1h-6v11z"
  />
</svg>