<?xml version="1.0" encoding="UTF-8" standalone="no"?>
<svg
   xmlns:dc="http://purl.org/dc/elements/1.1/"
   xmlns:cc="http://creativecommons.org/ns#"
   xmlns:rdf="http://www.w3.org/1999/02/22-rdf-syntax-ns#"
   xmlns:svg="http://www.w3.org/2000/svg"
   xmlns="http://www.w3.org/2000/svg"
   xmlns:sodipodi="http://sodipodi.sourceforge.net/DTD/sodipodi-0.dtd"
   xmlns:inkscape="http://www.inkscape.org/namespaces/inkscape"
   version="1.1"
   id="svg2"
   xml:space="preserve"
   width="2829.3333"
   height="2829.3333"
   viewBox="0 0 2829.3333 2829.3333"
   sodipodi:docname="2085_U1RVRElPIEtBVCAwNDAtNDY.eps"><metadata
     id="metadata8"><rdf:RDF><cc:Work
         rdf:about=""><dc:format>image/svg+xml</dc:format><dc:type
           rdf:resource="http://purl.org/dc/dcmitype/StillImage" /></cc:Work></rdf:RDF></metadata><defs
     id="defs6" /><sodipodi:namedview
     pagecolor="#ffffff"
     bordercolor="#666666"
     borderopacity="1"
     objecttolerance="10"
     gridtolerance="10"
     guidetolerance="10"
     inkscape:pageopacity="0"
     inkscape:pageshadow="2"
     inkscape:window-width="640"
     inkscape:window-height="480"
     id="namedview4" /><g
     id="g10"
     inkscape:groupmode="layer"
     inkscape:label="ink_ext_XXXXXX"
     transform="matrix(1.3333333,0,0,-1.3333333,0,2829.3333)"><g
       id="g12"
       transform="scale(0.1)"><path
         d="m 4835.24,3635.4 c -489.89,77.8 -217.75,429.3 -217.75,429.3 L 6949.65,7329.5 H 16657 l 2332.2,-3264.8 c 0,0 248.8,-367.1 -217.8,-429.3 H 4835.24"
         style="fill:#6bcee2;fill-opacity:1;fill-rule:nonzero;stroke:none"
         id="path14" /><path
         d="M 4543.53,4639.1 H 19053 l 2.5,-207.5 c 0,0 11.6,-383.6 -284.1,-383.6 H 4835.24 c -302.42,46.6 -293.17,357.8 -293.17,357.8 l 1.46,233.3"
         style="fill:#1f2f56;fill-opacity:1;fill-rule:nonzero;stroke:none"
         id="path16" /><path
         d="m 6949.65,8037.6 c 0,-167.4 135.56,-302.9 302.76,-302.9 h 9112.49 c 167.2,0 302.8,135.5 302.8,302.9 v 6085.5 c 0,167.3 -135.6,302.9 -302.8,302.9 H 7252.41 c -167.2,0 -302.76,-135.6 -302.76,-302.9 V 8037.6"
         style="fill:#2c447d;fill-opacity:1;fill-rule:nonzero;stroke:none"
         id="path18" /><path
         d="m 7584.65,8337.9 h 8448.05 v 5484.8 H 7584.65 Z"
         style="fill:#17223f;fill-opacity:1;fill-rule:nonzero;stroke:none"
         id="path20" /><path
         d="m 7251.42,7734.7 c -0.1,0 -0.19,0 -0.28,0 0.1,0 0.18,0 0.28,0 m -0.99,0 c -0.11,0 -0.23,0 -0.34,0 0.11,0 0.22,0 0.34,0 m -0.99,0 c -0.13,0 -0.25,0 -0.38,0 0.13,0 0.26,0 0.38,0 m -0.99,0 c -0.13,0 -0.26,0 -0.39,0 0.12,0 0.27,0 0.39,0 m -0.99,0 c -0.12,0 -0.25,0 -0.37,0 0.13,0 0.24,0 0.37,0 m -1,0 c -0.11,0 -0.23,0 -0.34,0 0.11,0 0.23,0 0.34,0 m -0.99,0.1 c -0.11,0 -0.22,0 -0.33,0 0.12,0 0.22,0 0.33,0 m -0.99,0 c -0.11,0 -0.22,0 -0.33,0 0.11,0 0.22,0 0.33,0 m -0.99,0 c -0.1,0 -0.2,0 -0.3,0 0.1,0 0.2,0 0.3,0 m -1,0 c -0.09,0 -0.16,0 -0.25,0 0.08,0 0.16,0 0.25,0 m -1.01,0.1 c -0.06,0 -0.12,0 -0.18,0 0.07,0 0.11,0 0.18,0 m -1,0 c -0.05,0 -0.09,0 -0.14,0 0.05,0 0.09,0 0.14,0 m -1,0.1 c -0.03,0 -0.08,0 -0.11,0 0.04,0 0.07,0 0.11,0 m -0.99,0 c -0.03,0 -0.07,0 -0.1,0 0.03,0 0.07,0 0.1,0 m -1.02,0 c 0,0 -0.01,0 -0.02,0 h 0.02 m -0.99,0.1 c -0.01,0 -0.01,0 -0.01,0 h 0.01 m -195.25,85.4 c -0.06,0.1 -0.12,0.1 -0.18,0.2 0.06,-0.1 0.12,-0.1 0.18,-0.2 m -0.41,0.4 c -2.1,2.1 -4.18,4.2 -6.22,6.3 v 0 c 2.04,-2.1 4.12,-4.2 6.22,-6.3 m 9329.18,6605 c -1.7,0 -3.4,0.1 -5.1,0.1 1.7,0 3.4,-0.1 5.1,-0.1"
         style="fill:#ffffff;fill-opacity:1;fill-rule:nonzero;stroke:none"
         id="path22" /><path
         d="M 16364.9,7734.7 H 7252.41 v 0 c -0.33,0 -0.66,0 -0.99,0 -0.1,0 -0.18,0 -0.28,0 -0.24,0 -0.47,0 -0.71,0 -0.12,0 -0.23,0 -0.34,0 -0.22,0 -0.43,0 -0.65,0 -0.12,0 -0.25,0 -0.38,0 -0.2,0 -0.41,0 -0.61,0 -0.12,0 -0.27,0 -0.39,0 -0.2,0 -0.4,0 -0.6,0 -0.13,0 -0.24,0 -0.37,0 -0.21,0 -0.42,0 -0.63,0 -0.11,0 -0.23,0 -0.34,0 -0.21,0 -0.44,0.1 -0.65,0.1 -0.11,0 -0.21,0 -0.33,0 -0.22,0 -0.44,0 -0.66,0 -0.11,0 -0.22,0 -0.33,0 -0.22,0 -0.44,0 -0.66,0 -0.1,0 -0.2,0 -0.3,0 -0.23,0 -0.47,0 -0.7,0 -0.09,0 -0.17,0 -0.25,0 -0.25,0.1 -0.5,0.1 -0.76,0.1 -0.07,0 -0.11,0 -0.18,0 -0.27,0 -0.55,0 -0.82,0 -0.05,0 -0.09,0 -0.14,0 -0.29,0 -0.57,0 -0.86,0.1 -0.04,0 -0.07,0 -0.11,0 -0.3,0 -0.59,0 -0.88,0 -0.03,0 -0.07,0 -0.1,0 -0.31,0 -0.61,0 -0.92,0 h -0.02 c -0.32,0.1 -0.65,0.1 -0.97,0.1 h -0.01 c -75.82,3.9 -144.22,35.8 -195.24,85.4 -0.06,0.1 -0.12,0.1 -0.18,0.2 -0.08,0.1 -0.16,0.1 -0.23,0.2 -2.1,2.1 -4.18,4.2 -6.21,6.3 l 561.95,510.7 h 8436.14 v 5484.8 h -2401.8 l 663.8,603.3 h 2070.2 v 0 c 1.7,0 3.4,-0.1 5.1,-0.1 81.5,-1.3 155.3,-34.9 209,-88.7 54.8,-54.8 88.7,-130.5 88.7,-214.1 V 8037.6 c 0,-167.4 -135.6,-302.9 -302.8,-302.9"
         style="fill:#435b94;fill-opacity:1;fill-rule:nonzero;stroke:none"
         id="path24" /><path
         d="M 16032.7,8337.9 H 7596.56 l 6034.34,5484.8 h 2401.8 V 8337.9"
         style="fill:#2b385b;fill-opacity:1;fill-rule:nonzero;stroke:none"
         id="path26" /><path
         d="m 4835.24,4343.5 c -489.89,77.7 -217.75,429.3 -217.75,429.3 L 6949.65,8037.6 H 16657 l 2332.2,-3264.8 c 0,0 248.8,-367 -217.8,-429.3 H 4835.24"
         style="fill:#2c447d;fill-opacity:1;fill-rule:nonzero;stroke:none"
         id="path28" /><path
         d="M 15879.5,7711.6 H 7723.06 L 6429.04,5650 H 17214.3 l -1334.8,2061.6"
         style="fill:#4267ba;fill-opacity:1;fill-rule:nonzero;stroke:none"
         id="path30" /><path
         d="M 12939.2,5482.4 H 10646.8 L 10283.2,4903 h 3031.2 l -375.2,579.4"
         style="fill:#4267ba;fill-opacity:1;fill-rule:nonzero;stroke:none"
         id="path32" /><path
         d="m 14962.6,7270.3 c 240.7,0 360.9,0 601.5,0 -50.9,94 -76.2,140.9 -127.1,234.9 -232.3,0 -348.4,0 -580.8,0 42.6,-94 63.9,-140.9 106.4,-234.9"
         style="fill:#3697da;fill-opacity:1;fill-rule:nonzero;stroke:none"
         id="path34" /><path
         d="m 14024.9,7270.3 c 240.6,0 360.9,0 601.5,0 -37.9,94 -56.9,140.9 -94.8,234.9 -232.2,0 -348.5,0 -580.7,0 29.6,-94 44.4,-140.9 74,-234.9"
         style="fill:#3697da;fill-opacity:1;fill-rule:nonzero;stroke:none"
         id="path36" /><path
         d="m 13087.1,7270.3 c 240.7,0 360.9,0 601.6,0 -25,94 -37.4,140.9 -62.4,234.9 -232.4,0 -348.5,0 -580.9,0 16.7,-94 25,-140.9 41.7,-234.9"
         style="fill:#3697da;fill-opacity:1;fill-rule:nonzero;stroke:none"
         id="path38" /><path
         d="m 12149.2,7270.3 c 240.7,0 361,0 601.6,0 -11.9,94 -17.9,140.9 -29.9,234.9 -232.4,0 -348.6,0 -580.9,0 3.7,-94 5.5,-140.9 9.2,-234.9"
         style="fill:#3697da;fill-opacity:1;fill-rule:nonzero;stroke:none"
         id="path40" /><path
         d="m 11211.5,7270.3 c 240.6,0 360.9,0 601.6,0 0.9,94 1.4,140.9 2.4,234.9 -232.4,0 -348.6,0 -580.9,0 -9.3,-94 -13.9,-140.9 -23.1,-234.9"
         style="fill:#3697da;fill-opacity:1;fill-rule:nonzero;stroke:none"
         id="path42" /><path
         d="m 10273.6,7270.3 c 240.7,0 361,0 601.6,0 13.9,94 20.9,140.9 34.8,234.9 -232.4,0 -348.5,0 -580.8,0 -22.2,-94 -33.4,-140.9 -55.6,-234.9"
         style="fill:#3697da;fill-opacity:1;fill-rule:nonzero;stroke:none"
         id="path44" /><path
         d="m 9335.87,7270.3 c 240.69,0 360.9,0 601.57,0 26.86,94 40.27,140.9 67.16,234.9 -232.39,0 -348.51,0 -580.82,0 -35.13,-94 -52.74,-140.9 -87.91,-234.9"
         style="fill:#3697da;fill-opacity:1;fill-rule:nonzero;stroke:none"
         id="path46" /><path
         d="m 8398.15,7270.3 c 240.59,0 360.91,0 601.49,0 39.87,94 59.72,140.9 99.59,234.9 -232.34,0 -348.48,0 -580.75,0 -48.13,-94 -72.19,-140.9 -120.33,-234.9"
         style="fill:#3697da;fill-opacity:1;fill-rule:nonzero;stroke:none"
         id="path48" /><path
         d="m 15462.4,6870.1 c 254.8,0 382.2,0 637,0 -55.1,94 -82.5,140.9 -137.6,234.9 -246.4,0 -369.6,0 -616.1,0 46.8,-94 70,-140.9 116.7,-234.9"
         style="fill:#3697da;fill-opacity:1;fill-rule:nonzero;stroke:none"
         id="path50" /><path
         d="m 14469.5,6870.1 c 254.9,0 382.1,0 637,0 -42.1,94 -63.1,141 -105.2,234.9 -246.5,0 -369.7,0 -616.2,0 33.8,-93.9 50.7,-140.9 84.4,-234.9"
         style="fill:#3697da;fill-opacity:1;fill-rule:nonzero;stroke:none"
         id="path52" /><path
         d="m 13476.5,6870.1 c 254.8,0 382.2,0 637.1,0 -29.2,94 -43.7,140.9 -72.9,234.9 -246.4,0 -369.7,0 -616.2,0 20.8,-94 31.2,-140.9 52,-234.9"
         style="fill:#3697da;fill-opacity:1;fill-rule:nonzero;stroke:none"
         id="path54" /><path
         d="m 12483.5,6870.1 c 254.9,0 382.2,0 637,0 -16.2,94 -24.2,141 -40.4,234.9 -246.5,0 -369.8,0 -616.3,0 7.9,-93.9 11.9,-140.9 19.7,-234.9"
         style="fill:#3697da;fill-opacity:1;fill-rule:nonzero;stroke:none"
         id="path56" /><path
         d="m 11490.5,6870.1 c 254.8,0 382.2,0 637,0 -3.2,94 -4.7,140.9 -8,234.9 -246.5,0 -369.7,0 -616.3,0 -5.1,-94 -7.6,-140.9 -12.7,-234.9"
         style="fill:#3697da;fill-opacity:1;fill-rule:nonzero;stroke:none"
         id="path58" /><path
         d="m 10497.4,6870.1 c 254.8,0 382.2,0 637,0 9.8,94 14.7,140.9 24.5,234.9 -246.5,0 -369.8,0 -616.3,0 -18.1,-94 -27.1,-140.9 -45.2,-234.9"
         style="fill:#3697da;fill-opacity:1;fill-rule:nonzero;stroke:none"
         id="path60" /><path
         d="m 9504.41,6870.1 c 254.86,0 382.15,0 636.99,0 22.8,94 34.1,140.9 56.8,234.9 -246.48,0 -369.68,0 -616.14,0 -31.03,-94 -46.6,-140.9 -77.65,-234.9"
         style="fill:#3697da;fill-opacity:1;fill-rule:nonzero;stroke:none"
         id="path62" /><path
         d="m 8511.49,6870.1 c 254.79,0 382.26,0 637.05,0 35.64,94 53.44,140.9 89.08,234.9 -246.47,0 -369.68,0 -616.14,0 -43.97,-94 -66.02,-140.9 -109.99,-234.9"
         style="fill:#3697da;fill-opacity:1;fill-rule:nonzero;stroke:none"
         id="path64" /><path
         d="m 7631.07,6870.1 c 254.77,0 382.06,0 636.9,0 47.13,94 70.72,140.9 117.94,234.9 -246.57,0 -369.72,0 -616.16,0 -55.44,-94 -83.24,-140.9 -138.68,-234.9"
         style="fill:#3697da;fill-opacity:1;fill-rule:nonzero;stroke:none"
         id="path66" /><path
         d="m 15271.7,6457.2 c 269.4,0 404.1,0 673.5,0 -50.1,93.8 -75.1,140.8 -125.2,234.8 -261.1,0 -391.7,0 -652.8,0 41.9,-94 62.7,-141 104.5,-234.8"
         style="fill:#3697da;fill-opacity:1;fill-rule:nonzero;stroke:none"
         id="path68" /><path
         d="m 14221.8,6457.2 c 269.4,0 404.1,0 673.5,0 -37.1,93.8 -55.7,140.8 -92.9,234.8 -261.2,0 -391.7,0 -652.8,0 28.9,-94 43.3,-141 72.2,-234.8"
         style="fill:#3697da;fill-opacity:1;fill-rule:nonzero;stroke:none"
         id="path70" /><path
         d="m 13171.8,6457.2 c 269.4,0 404.2,-0.1 673.7,-0.1 -24.3,93.9 -36.4,140.9 -60.7,234.9 -261.1,0 -391.6,0 -652.8,0 15.9,-94 23.8,-141 39.8,-234.8"
         style="fill:#3697da;fill-opacity:1;fill-rule:nonzero;stroke:none"
         id="path72" /><path
         d="m 12121.8,6457.2 c 269.4,0 404.2,0 673.6,0 -11.2,93.8 -16.9,140.8 -28.2,234.8 -261.1,0 -391.6,0 -652.8,0 3,-94 4.4,-141 7.4,-234.8"
         style="fill:#3697da;fill-opacity:1;fill-rule:nonzero;stroke:none"
         id="path74" /><path
         d="m 11071.8,6457.2 c 269.4,0 404.1,0 673.6,0 1.6,93.8 2.5,140.8 4.2,234.8 -261.2,0 -391.7,0 -652.8,0 -10,-94 -15,-141 -25,-234.8"
         style="fill:#3697da;fill-opacity:1;fill-rule:nonzero;stroke:none"
         id="path76" /><path
         d="m 10021.8,6457.2 c 269.5,0 404.1,0 673.6,0 14.6,93.8 22,140.8 36.6,234.8 -261.1,0 -391.7,0 -652.8,0 -22.9,-94 -34.4,-141 -57.4,-234.8"
         style="fill:#3697da;fill-opacity:1;fill-rule:nonzero;stroke:none"
         id="path78" /><path
         d="m 8971.89,6457.2 c 269.33,0 404.18,0 673.54,0 27.62,93.8 41.38,140.8 68.92,234.8 -261.1,0 -391.63,0 -652.76,0 -35.84,-94 -53.82,-141 -89.7,-234.8"
         style="fill:#3697da;fill-opacity:1;fill-rule:nonzero;stroke:none"
         id="path80" /><path
         d="m 7921.92,6457.2 c 269.45,0 404.18,0 673.58,0 40.59,93.8 60.81,140.8 101.35,234.8 -261.09,0 -391.7,0 -652.8,0 -48.85,-94 -73.24,-141 -122.13,-234.8"
         style="fill:#3697da;fill-opacity:1;fill-rule:nonzero;stroke:none"
         id="path82" /><path
         d="m 15804.4,6057.1 c 283.6,0 425.4,0 708.9,0 -54.3,93.8 -81.4,140.9 -135.7,234.6 -275.3,0 -412.8,0.1 -688.1,0.1 46,-93.8 69,-140.9 114.9,-234.7"
         style="fill:#3697da;fill-opacity:1;fill-rule:nonzero;stroke:none"
         id="path84" /><path
         d="m 14699.3,6057 c 283.5,0 425.4,0.1 708.9,0.1 -41.4,93.8 -62,140.9 -103.3,234.7 -275.3,0 -412.8,-0.1 -688.1,-0.1 33,-93.7 49.5,-140.8 82.5,-234.7"
         style="fill:#3697da;fill-opacity:1;fill-rule:nonzero;stroke:none"
         id="path86" /><path
         d="m 10278.6,6057.1 c 1341.4,0 2683,0 4024.5,0 -28.4,93.8 -42.5,140.9 -71,234.7 -1302.1,-0.1 -2604.3,-0.1 -3906.7,-0.1 -18.7,-93.7 -28,-140.8 -46.8,-234.6"
         style="fill:#3697da;fill-opacity:1;fill-rule:nonzero;stroke:none"
         id="path88" /><path
         d="m 9173.35,6057.1 c 283.64,0 425.46,0 709,0 23.41,93.8 35.22,140.9 58.63,234.6 -275.28,0 -413.03,0 -688.27,0 -31.8,-93.7 -47.59,-140.8 -79.36,-234.6"
         style="fill:#3697da;fill-opacity:1;fill-rule:nonzero;stroke:none"
         id="path90" /><path
         d="m 8068.24,6057.1 c 283.54,0 425.31,0 708.95,0 36.35,93.8 54.53,140.9 90.9,234.6 -275.23,0 -412.89,0 -688.17,0 -44.66,-93.7 -67,-140.8 -111.68,-234.6"
         style="fill:#3697da;fill-opacity:1;fill-rule:nonzero;stroke:none"
         id="path92" /><path
         d="m 7088.23,6057.1 c 283.59,0 425.37,0 708.91,0 47.85,93.8 71.82,140.9 119.75,234.6 -275.28,0 -412.91,0 -688.19,0 -56.16,-93.7 -84.22,-140.8 -140.47,-234.6"
         style="fill:#3697da;fill-opacity:1;fill-rule:nonzero;stroke:none"
         id="path94" /><path
         d="m 2860.54,10850.5 c 24.93,-110.2 71.92,-170.4 71.65,-291.5 -0.19,-101.7 -34.3,-223.4 -28.09,-317.1 6.3,-96.8 97.03,-148.5 61.54,-255.9 -26.05,-79.2 -102.5,-155.5 -134.57,-230.8 -88.04,-206 47.18,-558.7 -31.69,-755.3 -50.42,-125.9 -64.05,-153.7 86.84,-223.2 115.19,-53.2 249.48,12.8 385.34,20.2 123.17,6.8 244.12,42.4 367.66,30.4 101.38,-9.7 134.56,-44.8 204.71,38.2 122.52,145.2 -64.87,638.1 -59.31,826.5 4.08,138.8 51.07,277 -10.19,407.8 -82.3,175.9 -230.49,242.1 -203.15,467.2 19.46,160.4 126.78,293.7 20.76,454.7 -44.12,67 -145.32,82.9 -183.97,150.3 -22.42,39.3 3.06,87.4 -11.02,114.7 -22.99,44.5 -111.68,93.8 -159.31,106.8 -275.16,75.4 -423.81,-334.9 -377.2,-543"
         style="fill:#293d9b;fill-opacity:1;fill-rule:nonzero;stroke:none"
         id="path96" /><path
         d="m 4050.32,10899.4 c 1.86,-198.3 -61.26,-346.7 30.5,-537.8 39.47,-82 91.37,-124.3 92.11,-221 0.93,-103 -46.33,-166.5 33.74,-256.2 65.71,-73.5 151.06,-81.9 177.94,-172.3 26.6,-89.9 -18.26,-193.5 11.4,-284.5 21.22,-64.7 120.2,-167 76.08,-243.1 -42.07,-72.8 -189.33,-62.6 -263.2,-83.4 -88.22,-24.9 -147.73,-106.7 -247.63,-117.3 -159.4,-16.8 -265.43,111.3 -281,240.9 -22.33,185.4 16.5,337.7 55.7,518.9 33.65,156 -39.2,231.2 -108.33,366.5 -141.52,277.4 88.59,509.7 21.87,779.2 -35.22,142.5 -324.83,572.8 -159.22,590.5 331.13,35.6 558.38,-383.9 560.04,-580.4"
         style="fill:#293d9b;fill-opacity:1;fill-rule:nonzero;stroke:none"
         id="path98" /><path
         d="m 4374.6,9639.4 c 0,0 163.2,-1131.4 143.18,-1563.8 0,0 -213.62,-118.2 -326.87,-11.4 0,0 -230.76,734.2 -313.24,1374.4 0,0 136.32,504.2 496.93,200.8"
         style="fill:#f69575;fill-opacity:1;fill-rule:nonzero;stroke:none"
         id="path100" /><path
         d="m 4520.01,8113.7 c 0,0 201.11,-766.2 308.06,-1091.5 0,0 -43.75,-91.9 -119.93,-44.1 -77.57,48.8 -548.83,1026.5 -506.85,1101.3 196.11,348.9 318.72,34.3 318.72,34.3"
         style="fill:#f69575;fill-opacity:1;fill-rule:nonzero;stroke:none"
         id="path102" /><path
         d="m 4002.97,9345.8 c 144.11,-53.2 304.44,19.6 358.1,162.5 53.56,142.9 -19.83,301.9 -164.04,355 -144.11,53.2 -304.44,-19.6 -358.1,-162.6 -53.57,-142.9 19.83,-301.8 164.04,-354.9"
         style="fill:#f69575;fill-opacity:1;fill-rule:nonzero;stroke:none"
         id="path104" /><path
         d="m 2425.71,9639.4 c 0,0 -163.21,-1131.4 -143.19,-1563.8 0,0 213.62,-118.2 326.78,-11.4 0,0 230.85,734.2 313.34,1374.4 0,0 -136.51,504.2 -496.93,200.8"
         style="fill:#f69575;fill-opacity:1;fill-rule:nonzero;stroke:none"
         id="path106" /><path
         d="m 2609.3,8064.2 c 0,0 -164.41,-774.9 -214.73,-1113.6 0,0 -80.36,-62.4 -126.97,14.6 -47.35,78.4 -29.56,1163.7 41.43,1211.6 332.06,223.7 300.27,-112.6 300.27,-112.6"
         style="fill:#f69575;fill-opacity:1;fill-rule:nonzero;stroke:none"
         id="path108" /><path
         d="m 2364.82,6717.3 -36.52,-134.1 57.65,-190.6 c 0,0 -37.26,-26 -67.2,37.7 l -52.91,157.9 28.36,152.6 70.62,-23.5"
         style="fill:#e1886a;fill-opacity:1;fill-rule:nonzero;stroke:none"
         id="path110" /><path
         d="m 2322.83,6675.4 -43.92,-131.8 46.98,-193.5 c 0,0 -38.64,-23.7 -65.06,41.6 l -43.92,160.4 36.79,150.7 69.13,-27.4"
         style="fill:#e1886a;fill-opacity:1;fill-rule:nonzero;stroke:none"
         id="path112" /><path
         d="m 2166.68,6663.5 43.83,155.6 50.7,193.8 125.29,2.3 17.43,-212.8 -2.69,-110.2 -5.56,-150.5 0.93,-48.8 c 0,0 -40.22,-7.8 -60.89,72.4 l -14.74,144 -66.63,-103.8 22.06,-285.5 c 0,0 -23.73,-13.6 -49.59,28.3 l -69.14,284.2 9,31"
         style="fill:#f69575;fill-opacity:1;fill-rule:nonzero;stroke:none"
         id="path114" /><path
         d="m 2797.43,9345.8 c -144.11,-53.2 -304.53,19.6 -358.28,162.5 -53.57,142.9 19.82,301.9 164.03,355 144.2,53.2 304.54,-19.6 358.2,-162.6 53.56,-142.9 -19.84,-301.8 -163.95,-354.9"
         style="fill:#f69575;fill-opacity:1;fill-rule:nonzero;stroke:none"
         id="path116" /><path
         d="m 3882.02,8323.3 409.73,1256.3 c 59.68,181.5 -83.23,302.8 -83.23,302.8 l -573.67,223.8 h -408.98 l -571.44,-223.8 c 0,0 -143,-121.3 -83.31,-302.8 l 390.53,-1256.3 h 920.37"
         style="fill:#f69575;fill-opacity:1;fill-rule:nonzero;stroke:none"
         id="path118" /><path
         d="m 2961.65,8323.3 h 920.37"
         style="fill:#5dc1bb;fill-opacity:1;fill-rule:nonzero;stroke:none"
         id="path120" /><path
         d="m 4097.22,4901.5 c 0,0 -251.99,-2236.4 -267.93,-2317.8 -74.42,-50.7 -164.69,0 -164.69,0 0.75,111.7 -177.1,1105.7 -189.8,1280.9 -21.68,301.2 -66.35,578.4 123.82,1011.1 l 498.6,25.8"
         style="fill:#f69575;fill-opacity:1;fill-rule:nonzero;stroke:none"
         id="path122" /><path
         d="m 3290.47,4901.5 c 0,0 -251.89,-2236.4 -267.83,-2317.8 -89.72,-50.7 -164.69,0 -164.69,0 0.74,111.7 -177.29,1105.7 -189.89,1280.9 -21.69,301.2 -66.36,578.4 123.9,1011.1 l 498.51,25.8"
         style="fill:#f69575;fill-opacity:1;fill-rule:nonzero;stroke:none"
         id="path124" /><path
         d="m 4146.71,7296.3 c 26.32,-264.6 -166.82,-500.4 -431.41,-526.9 -264.5,-26.2 -500.45,166.9 -526.78,431.5 -26.22,264.4 166.82,500.4 431.32,526.7 264.59,26.4 500.55,-166.8 526.87,-431.3"
         style="fill:#161c22;fill-opacity:1;fill-rule:nonzero;stroke:none"
         id="path126" /><path
         d="m 3506.68,4827.8 c 0,0 199.07,-94.4 415.75,-75.7 0,0 205.84,-46.9 267.74,228.5 243.74,1085 -41.23,2272.8 -41.23,2272.8 0,0 -520.76,180.5 -960.42,-52.5 0,0 122.33,-1455.7 318.16,-2373.1"
         style="fill:#212048;fill-opacity:1;fill-rule:nonzero;stroke:none"
         id="path128" /><path
         d="m 4142.54,7318.6 c -26.79,455.1 -260.52,1004.7 -260.52,1004.7 h -920.37 c 0,0 -301.75,-469.2 -359.95,-1004.7 l 610.27,-391.9 h 422.88 c 0,0 396.57,88.5 507.69,391.9"
         style="fill:#29295e;fill-opacity:1;fill-rule:nonzero;stroke:none"
         id="path130" /><path
         d="m 3564.6,7248.6 c 0,-265.8 -215.46,-481.6 -481.35,-481.6 -265.99,0 -481.55,215.8 -481.55,481.6 0,265.8 215.56,481.4 481.55,481.4 265.89,0 481.35,-215.6 481.35,-481.4"
         style="fill:#29295e;fill-opacity:1;fill-rule:nonzero;stroke:none"
         id="path132" /><path
         d="m 2660,4827.8 c 0,0 118.34,-121.1 335.85,-124.1 0,0 287.49,-70.2 376.27,197.8 350.22,1055.4 184.52,2260 184.52,2260 0,0 -494.43,275.4 -954.94,87.1 0,0 -45.78,-1488.6 58.3,-2420.8"
         style="fill:#29295e;fill-opacity:1;fill-rule:nonzero;stroke:none"
         id="path134" /><path
         d="m 3636.89,10503.8 v -406.6 h -411.02 v 406.6 h 411.02"
         style="fill:#f7906e;fill-opacity:1;fill-rule:nonzero;stroke:none"
         id="path136" /><path
         d="m 3228.1,10196.7 v 307.1 h 408.79 v -256.4 c -269.77,-56.1 -351.06,-50.7 -408.79,-50.7"
         style="fill:#e27462;fill-opacity:1;fill-rule:nonzero;stroke:none"
         id="path138" /><path
         d="m 3238.29,10244.4 c 0,0 -121.22,-14.3 -193.78,210.8 0,0 -190.17,477.1 51.8,805.8 93.33,126.7 329.1,125 462.65,76.1 171.17,-62.6 245.96,-241.9 245.96,-410.2 l -68.12,-313.2 c 0,0 -35.03,-148.7 -141.98,-232.8 0,0 -181.37,-138.8 -356.53,-136.5"
         style="fill:#f69575;fill-opacity:1;fill-rule:nonzero;stroke:none"
         id="path140" /><path
         d="m 2978.43,10952.9 c -70.62,696.4 628.16,507.5 628.16,507.5 317.79,-130.9 315.94,-362.6 315.94,-362.6 0,-451.1 -249.95,-629.6 -249.95,-629.6 l -36.43,85.2 c 1.67,151.8 -4.63,191.9 -4.63,191.9 -3.43,44.4 -76.36,-19.8 -72.1,38 0,0 -1.12,61.1 -36.33,123.4 -32.53,57.8 7.69,139.8 -133.92,234.9 0,0 -327.98,68.7 -370.8,-83.7 l -39.94,-105"
         style="fill:#293d9b;fill-opacity:1;fill-rule:nonzero;stroke:none"
         id="path142" /><path
         d="m 3608.72,10626.9 c 11.21,-8.7 25.86,-13.6 43.84,-13.2 48.93,0.6 89.61,46.4 90.64,102 1.29,55.6 -37.45,100.1 -86.38,99.5 -23.08,-0.3 -44.48,-10.9 -60.52,-27.8 -23.54,-24.5 -24.19,-69.8 -18.62,-101 4.54,-25 14.17,-46.4 31.04,-59.5"
         style="fill:#f69575;fill-opacity:1;fill-rule:nonzero;stroke:none"
         id="path144" /><path
         d="m 3637.17,10763.3 c 2.78,29.3 61.91,1.3 53.01,-15.1 -5.19,-9.4 -15.56,-16.5 -23.63,-23 -11.12,-9.2 -16.59,-17.4 -18.26,-32 -0.09,-1.6 -0.46,-6.8 1.21,-7.9 7.69,-5.3 32.71,23.2 38.18,29.2 10.84,11.9 12.33,32.1 7.14,46.7 -5.47,15.6 -15.76,23 -32.44,22 -13.25,-0.9 -26.69,-1.8 -26.04,-18.3 0.09,-0.3 0.55,-3.1 0.83,-1.6"
         style="fill:#eb7963;fill-opacity:1;fill-rule:nonzero;stroke:none"
         id="path146" /><path
         d="m 3656.08,10733.1 c -6.21,6.1 -11.96,1 -18.35,-3.5 -5.75,-4.3 -9.09,-10.4 -10.47,-17.2 -3.43,-15.2 -1.49,-35.5 7.32,-48.9 6.95,-10.6 18.71,-17.1 31.7,-16.8 17.69,0.5 23.16,16.2 23.72,31.3 0.18,4 0.65,13.5 -3.33,16.1 -4.46,2.6 -7.42,-4.1 -10.2,-6.8 -3.99,-3.8 -9.83,-5.2 -15.11,-5.7 -10.1,-0.9 -20.11,4.3 -26.42,11.8 -1.1,1.4 -2.13,2.9 -2.77,4.6 0.09,-9.9 0.64,-12 1.67,-6.7 0.74,2.6 1.94,4.9 3.33,7.1 4.08,6.7 11.03,11.5 15.67,17.9 2.13,3.1 6.3,13.6 3.24,16.8"
         style="fill:#eb7963;fill-opacity:1;fill-rule:nonzero;stroke:none"
         id="path148" /><path
         d="M 4214.36,9192.8 4075.07,8498 c 0,0 -7.6,-130.4 -193.05,-174.7 0,0 -9.45,-2.6 -26.6,-6.4 3.34,0.7 6.12,1.4 9,2.1 -3.15,-0.8 -6.03,-1.5 -9,-2.1 -102.59,-23.1 -490.9,-97.1 -893.77,6.4 -166.72,13.9 -237.25,214.4 -237.25,214.4 l -79.05,536.4 c 70.16,59.7 122.89,142.6 162.46,230.1 94.44,209 39.85,423.1 -6.77,635.7 l 266.45,104.3 c 0,0 98.7,-207.8 365.05,-206.6 0,0 198.7,-37.7 361.81,206.4 l 214.64,-83.7 198.7,-638.8 c 0,0 19.74,-63.7 6.67,-128.7"
         style="fill:#6e4caa;fill-opacity:1;fill-rule:nonzero;stroke:none"
         id="path150" /><path
         d="m 3867.94,8319.9 c 1.48,0.3 3.15,0.6 4.63,0.9 -1.39,-0.2 -2.97,-0.6 -4.63,-0.9"
         style="fill:#f03e58;fill-opacity:1;fill-rule:nonzero;stroke:none"
         id="path152" /><path
         d="m 4811.1,7059.1 114.74,-87.3 103.14,-114.3 c -38.64,-34.2 -106.39,38.4 -106.39,38.4 83.23,-130.9 133.27,-217.9 133.27,-217.9 11.86,-49.4 -27.89,-32.8 -27.89,-32.8 -48.66,53.4 -119.92,161.6 -119.92,161.6 30.39,-72.9 95.36,-217.2 95.36,-217.2 2.04,-44.3 -32.44,-22.8 -32.44,-22.8 -61.72,64.1 -112.88,207.9 -112.88,207.9 26.32,-80.1 58.02,-180.8 58.02,-180.8 2.87,-35.7 -24.28,-27.3 -24.28,-27.3 -29.75,9.2 -91.57,189.2 -91.57,189.2 l 5.84,-71.4 c 6.02,-73 -29.38,-54.3 -29.38,-54.3 l -15.29,40.3 c -38.83,104.9 -37.81,212.1 -37.81,212.1 l -17.89,134.1 105.37,42.5"
         style="fill:#f69575;fill-opacity:1;fill-rule:nonzero;stroke:none"
         id="path154" /><path
         d="m 3022.82,2585.5 c 0,0 42.91,-147.7 92.3,-188.6 49.4,-40.8 235.87,-98.8 235.87,-98.8 l 103.15,-12.9 c 0,0 72.19,-49.9 -122.8,-107.3 -194.9,-57.5 -541.79,99 -541.79,99 l 68.49,308.6 h 164.78"
         style="fill:#f69575;fill-opacity:1;fill-rule:nonzero;stroke:none"
         id="path156" /><path
         d="m 2777.14,2249.1 c 12.04,-5.5 255.97,-114.2 454.48,-114.2 38.55,0 75.25,4 108.34,13.7 100.46,29.7 150.32,62.6 156.9,103.8 4.36,26.7 -29.75,36.7 -42.72,32.8 l -17.43,-22.9 c -0.09,-0.3 -8.71,-24.4 -113.8,-55.2 -182.02,-53.6 -522.79,100.7 -526.04,102.1 0,0 -11.21,-19.9 -19.73,-60.1"
         style="fill:#6f4323;fill-opacity:1;fill-rule:nonzero;stroke:none"
         id="path158" /><path
         d="m 3239.04,2336.9 c 0,0 -96.66,-57.4 -110.66,-163 0,0 93.6,-20.9 159.03,-8.6 0,0 1.21,88.2 75.25,131.3 0,0 -65.52,30.1 -123.62,40.3"
         style="fill:#6f4323;fill-opacity:1;fill-rule:nonzero;stroke:none"
         id="path160" /><path
         d="m 3121.05,2392.4 c 0,0 -113.62,-44.5 -146.05,-151.1 0,0 13.53,-5.6 53.57,-15.3 0,0 49.02,106.2 135.21,142.5 l -42.73,23.9"
         style="fill:#6f4323;fill-opacity:1;fill-rule:nonzero;stroke:none"
         id="path162" /><path
         d="m 2813.93,2397.2 c 0,0 72.57,-69.8 227.43,-112.2 l 28.08,43 c 0,0 -208.99,58.3 -242.81,126.2 0,0 -15.2,-25.2 -12.7,-57"
         style="fill:#6f4323;fill-opacity:1;fill-rule:nonzero;stroke:none"
         id="path164" /><path
         d="m 3833.28,2595 c 0,0 43,-147.7 92.3,-188.6 49.49,-40.8 236.05,-98.9 236.05,-98.9 l 102.97,-12.9 c 0,0 72.28,-49.9 -122.71,-107.3 -194.99,-57.3 -541.78,99 -541.78,99 l 68.39,308.7 h 164.78"
         style="fill:#f69575;fill-opacity:1;fill-rule:nonzero;stroke:none"
         id="path166" /><path
         d="m 3587.59,2258.5 c 12.23,-5.5 256.07,-114.3 454.58,-114.3 38.56,0 75.34,4.1 108.34,13.9 100.37,29.6 150.32,62.6 156.9,103.7 4.36,26.7 -29.66,36.7 -42.81,32.8 l -17.25,-22.8 c 0,-0.2 -8.89,-24.3 -114.08,-55.4 -181.92,-53.4 -522.6,100.9 -526.03,102.3 0,0 -10.94,-20.1 -19.65,-60.2"
         style="fill:#6f4323;fill-opacity:1;fill-rule:nonzero;stroke:none"
         id="path168" /><path
         d="m 4049.68,2346.4 c 0,0 -96.76,-57.3 -110.75,-163 0,0 93.6,-21 158.94,-8.7 0,0 1.39,88.2 75.25,131.4 0,0 -65.43,30.1 -123.44,40.3"
         style="fill:#6f4323;fill-opacity:1;fill-rule:nonzero;stroke:none"
         id="path170" /><path
         d="m 3931.51,2401.9 c 0,0 -113.62,-44.6 -145.96,-151.2 0,0 13.62,-5.4 53.56,-15.1 0,0 48.94,106.1 135.22,142.4 l -42.82,23.9"
         style="fill:#6f4323;fill-opacity:1;fill-rule:nonzero;stroke:none"
         id="path172" /><path
         d="m 3624.38,2406.7 c 0,0 72.76,-69.9 227.43,-112.3 l 28.26,43.1 c 0,0 -209.07,58.3 -242.99,126.3 0,0 -15.11,-25.2 -12.7,-57.1"
         style="fill:#6f4323;fill-opacity:1;fill-rule:nonzero;stroke:none"
         id="path174" /><path
         d="m 3440.14,11023.8 c 19,-73.4 12.51,-174.8 1.67,-246.4 -27.99,-185.3 -43.56,-300 30.77,-474.7 76.73,-180.6 -24.56,-321 -43.37,-506.8 -12.51,-123.6 -26.79,-200.7 50.78,-294.3 71.83,-86.6 97.03,-110.3 81,-223.8 -11.86,-85.3 -38.37,-160.9 -60.52,-245.9 -32.43,-125.2 4.64,-143.7 121.78,-179.9 183.78,-56.9 337.34,51.6 326.32,252 182.01,6.3 339,150.3 223.71,306.3 -63.67,85.8 -58.75,105.1 -52.26,202.4 7.97,120.5 -32.9,139 -120.12,205.5 -65.24,49.7 -138.55,113.8 -144.2,200.4 -5.74,87.5 58.57,158.9 40.5,253.7 -14.18,74.9 -70.8,133.5 -60.88,213.1 10.93,86.6 73.3,131.1 63.66,223.2 -8.89,84.4 -59.31,170.2 -63.66,263.9 -5.38,117.8 11.86,177.8 -91.29,241.2 -92.12,56.9 -230.39,188.8 -349.39,155.5 -215.75,-60.5 19.46,-245.1 45.5,-345.4"
         style="fill:#293d9b;fill-opacity:1;fill-rule:nonzero;stroke:none"
         id="path176" /><path
         d="M 5646.43,3572.8 H 4695.36 L 5170.91,2174.5 Z"
         style="fill:#deb2a7;fill-opacity:1;fill-rule:nonzero;stroke:none"
         id="path178" /><path
         d="m 5321.03,2615.9 -150.12,-441.4 -150.13,441.4 z"
         style="fill:#1d2c51;fill-opacity:1;fill-rule:nonzero;stroke:none"
         id="path180" /><path
         d="m 5329.41,3572.8 h 317.02 v 8864.3 H 5329.41 V 3572.8"
         style="fill:#3959a2;fill-opacity:1;fill-rule:nonzero;stroke:none"
         id="path182" /><path
         d="m 5012.38,3572.8 h 317.03 v 8864.3 H 5012.38 V 3572.8"
         style="fill:#335091;fill-opacity:1;fill-rule:nonzero;stroke:none"
         id="path184" /><path
         d="m 4695.36,3572.8 h 317.02 v 8864.3 H 4695.36 V 3572.8"
         style="fill:#2c447d;fill-opacity:1;fill-rule:nonzero;stroke:none"
         id="path186" /><path
         d="m 5418.34,3365.3 -88.93,207.5 h 317.02 l -83.73,-207.5 c 0,0 -67.91,-97.6 -144.36,0"
         style="fill:#3959a2;fill-opacity:1;fill-rule:nonzero;stroke:none"
         id="path188" /><path
         d="m 5101.32,3365.3 -88.94,207.5 h 317.03 l -83.73,-207.5 c 0,0 -67.94,-97.6 -144.36,0"
         style="fill:#335091;fill-opacity:1;fill-rule:nonzero;stroke:none"
         id="path190" /><path
         d="m 4784.3,3365.3 -88.94,207.5 h 317.02 l -83.73,-207.5 c 0,0 -67.92,-97.6 -144.35,0"
         style="fill:#2c447d;fill-opacity:1;fill-rule:nonzero;stroke:none"
         id="path192" /><path
         d="m 4695.36,12437.1 h 951.07 v 314.9 h -951.07 v -314.9"
         style="fill:#d3d2d2;fill-opacity:1;fill-rule:nonzero;stroke:none"
         id="path194" /><path
         d="m 4695.36,12876.6 h 951.07 V 12752 h -951.07 v 124.6"
         style="fill:#6eb1cd;fill-opacity:1;fill-rule:nonzero;stroke:none"
         id="path196" /><path
         d="m 4692.89,12879.9 v 325.3 c 0,223.1 180.81,403.9 403.86,403.9 h 145.83 c 223.03,0 403.85,-180.8 403.85,-403.9 v -325.3 h -953.54"
         style="fill:#39a0ca;fill-opacity:1;fill-rule:nonzero;stroke:none"
         id="path198" /><path
         d="m 4896.09,12998.8 c 94.1,-5.3 188.94,-6.6 283.08,-0.5 45.12,2.9 101.83,2.5 142.06,26.5 95.31,56.9 76.29,207 54.97,299.5 -29.67,128.8 -101.59,199 -183.85,284.8 h 50.23 c 223.03,0 403.85,-180.8 403.85,-403.9 v -325.3 h -953.54 v 127.4 c 68.37,-5.6 138.05,-4.8 203.2,-8.5"
         style="fill:#3089bc;fill-opacity:1;fill-rule:nonzero;stroke:none"
         id="path200" /><path
         d="m 16602.9,18810.8 c -5.5,39 11,88.6 1.4,128.2 -17,69.9 -65.6,83.4 -133.3,115.6 -104,49.7 -215,65.2 -274,-52.4 -61.9,-123.3 -4,-265.2 131.8,-287.3 89.7,-14.7 294.4,-51.3 274.1,95.9"
         style="fill:#9f5e2e;fill-opacity:1;fill-rule:nonzero;stroke:none"
         id="path202" /><path
         d="m 16638.5,18080.7 c 23.3,69.5 56.2,131.5 36.3,201.9 -17.6,62.6 -1,78.5 2.3,151.1 3.9,87 -12.4,177.9 -72.8,245.6 -16.8,18.8 -42.7,58.8 -59.4,77 -22.2,23.9 -42.2,10.8 -60.8,29.7 -34.4,34.9 -113.1,35.9 -156.9,57.2 -94.2,45.8 -119.4,46.4 -216.7,16.1 -101.5,-31.7 -268.4,-106.7 -322.9,-202 -52.3,-91.5 -77.1,-232.3 -81.3,-338.8 -3.8,-97.7 31,-295.7 102.6,-355.1 73.2,-60.7 140.5,-32.5 222.1,-54.1 72,-19 116.9,-88.3 187.6,-112.1 172.9,-58.3 370.2,135.1 419.9,283.5"
         style="fill:#ae6733;fill-opacity:1;fill-rule:nonzero;stroke:none"
         id="path204" /><path
         d="m 15496.2,17268.9 c 0,0 -989,-442.2 -1325.3,-677.3 0,0 13.5,-230.9 156.5,-267.6 0,0 704.9,187 1259.6,445.1 0,0 334.8,364.7 -90.8,499.8"
         style="fill:#f69575;fill-opacity:1;fill-rule:nonzero;stroke:none"
         id="path206" /><path
         d="m 14241.2,16353.5 c 0,0 -651.8,372.9 -942.8,516.4 0,0 -33.1,90.7 50,110.5 84.4,20 1058.6,-310.5 1081.2,-388.5 105.7,-364.3 -188.4,-238.4 -188.4,-238.4"
         style="fill:#f69575;fill-opacity:1;fill-rule:nonzero;stroke:none"
         id="path208" /><path
         d="m 13096.4,16964.4 -110.4,71.9 -188.7,3.2 c 0,0 -12.6,41 53.6,49.7 l 157.8,2 129.4,-69.8 -41.7,-57"
         style="fill:#e1886a;fill-opacity:1;fill-rule:nonzero;stroke:none"
         id="path210" /><path
         d="m 13070.9,17014.4 -106.2,77.9 -188.3,13.6 c 0,0 -10.3,41.8 56.3,46.7 l 157.6,-6.7 125.4,-77 -44.8,-54.5"
         style="fill:#e1886a;fill-opacity:1;fill-rule:nonzero;stroke:none"
         id="path212" /><path
         d="m 13105.3,17158.8 127.8,-84.6 160.1,-101.9 -34.2,-113.7 -197,45.9 -98.8,34.4 -134.1,48.5 -44.3,13.4 c 0,0 4.5,38.4 82.9,34 l 134.3,-28.6 -74.4,90.3 -264.1,62.8 c 0,0 -5.3,25.3 39.9,36.5 l 276.5,-19.9 25.4,-17.1"
         style="fill:#f69575;fill-opacity:1;fill-rule:nonzero;stroke:none"
         id="path214" /><path
         d="m 15449.2,16822.4 c -115.6,88.7 -138.5,253.9 -51.2,369.3 87.4,115.3 251.9,137 367.5,48.5 115.6,-88.7 138.5,-254 51.1,-369.3 -87.3,-115.4 -251.8,-137.1 -367.4,-48.5"
         style="fill:#f69575;fill-opacity:1;fill-rule:nonzero;stroke:none"
         id="path216" /><path
         d="m 15254.3,16558.7 c 32,12.9 179.7,56.1 212.5,71.4 162.6,57.7 293.9,166.9 349.8,240.8 87.4,115.3 64.5,280.6 -51.1,369.3 -87.5,67 -204.5,98.5 -326.4,57.2 -31.3,-14.2 -200,-90.2 -282.1,-124.1 -109.1,-166.9 -23.8,-408.9 97.3,-614.6"
         style="fill:#f03e58;fill-opacity:1;fill-rule:nonzero;stroke:none"
         id="path218" /><path
         d="m 15795.2,15831.4 -388.5,1190.7 c -56.4,172.1 79,287.2 79,287.2 l 543.7,211.9 h 387.5 l 541.7,-211.9 c 0,0 135.5,-115.1 79,-287.2 l -370.1,-1190.7 h -872.3"
         style="fill:#f69575;fill-opacity:1;fill-rule:nonzero;stroke:none"
         id="path220" /><path
         d="m 16667.5,15831.4 h -872.3"
         style="fill:#5dc1bb;fill-opacity:1;fill-rule:nonzero;stroke:none"
         id="path222" /><path
         d="m 15913.1,15261.2 c -247.6,-47.1 -410.1,-285.9 -363.1,-533.5 47.2,-247.6 286,-410.1 533.6,-363 247.6,47.1 410.1,285.9 363.1,533.6 -47.2,247.5 -286,410.1 -533.6,362.9"
         style="fill:#161c22;fill-opacity:1;fill-rule:nonzero;stroke:none"
         id="path224" /><path
         d="m 14043.5,14120.1 c 0,0 -113.9,-15.3 -155.1,186.7 0,0 -101.8,179.1 131.9,309.4 920.8,512.9 1853.2,635.6 1853.2,635.6 0,0 303.9,-425 210.1,-887.1 0,0 -1153.7,-176.4 -2040.1,-244.6"
         style="fill:#161c22;fill-opacity:1;fill-rule:nonzero;stroke:none"
         id="path226" /><path
         d="m 15548.2,14879.3 c 25.3,431.3 247,952.1 247,952.1 h 872.3 c 0,0 285.9,-444.6 341,-952.1 l -578.3,-371.4 h -400.8 c 0,0 -375.8,83.8 -481.2,371.4"
         style="fill:#1b242b;fill-opacity:1;fill-rule:nonzero;stroke:none"
         id="path228" /><path
         d="m 16425.3,15251.2 c -242.1,-70.1 -381.5,-323.2 -311.4,-565.2 70.1,-242.1 323.2,-381.5 565.3,-311.4 242,70.1 381.5,323.2 311.4,565.3 -70.2,242 -323.3,381.4 -565.3,311.3"
         style="fill:#1b242b;fill-opacity:1;fill-rule:nonzero;stroke:none"
         id="path230" /><path
         d="m 14675.9,13891 c 0,0 -111.9,-25.8 -172,171.4 0,0 -118.2,168.8 102.4,320.4 868.5,597.1 1741.9,838.2 1741.9,838.2 0,0 381,-377.5 331,-846.4 0,0 -1127.1,-332.5 -2003.3,-483.6"
         style="fill:#1b242b;fill-opacity:1;fill-rule:nonzero;stroke:none"
         id="path232" /><path
         d="m 14469.4,14150.1 c 0,0 238.8,-2119.5 253.8,-2196.7 85.1,-48.1 156.3,0 156.3,0 -0.8,105.9 167.8,1048 179.8,1214 20.5,285.4 62.9,548.2 -117.4,958.3 l -472.5,24.4"
         style="fill:#1b242b;fill-opacity:1;fill-rule:nonzero;stroke:none"
         id="path234" /><path
         d="m 13864.2,14406.5 c 0,0 241.5,-2119.2 256.7,-2196.4 70.6,-48 156.1,0.2 156.1,0.2 -0.9,106 166.6,1048.2 178.3,1214.3 20.2,285.4 62.3,548.3 -118.6,958.1 l -472.5,23.8"
         style="fill:#161c22;fill-opacity:1;fill-rule:nonzero;stroke:none"
         id="path236" /><path
         d="m 14963,11952.5 33.3,-291.8 c 0,0 -328.8,-148.2 -513.6,-93.8 -184.7,54.4 -116.2,101.7 -116.2,101.7 l 97.6,12.3 c 0,0 176.8,55 223.6,93.7 46.8,38.7 29.7,178.8 29.7,178.8 l -129.1,949.3 c 202,5.6 268.4,16.2 470.3,-31.1 l -95.6,-919.1"
         style="fill:#5f3326;fill-opacity:1;fill-rule:nonzero;stroke:none"
         id="path238" /><path
         d="m 14346.2,12209.5 33.6,-291.7 c 0,0 -328.6,-148.7 -513.4,-94.5 -184.9,54.2 -116.4,101.6 -116.4,101.6 l 97.6,12.4 c 0,0 176.7,55.2 223.4,94 46.8,38.7 29.6,178.8 29.6,178.8 l -130.3,949.1 c 201.9,5.8 268.3,16.5 470.2,-30.4 l -94.3,-919.3"
         style="fill:#5f3326;fill-opacity:1;fill-rule:nonzero;stroke:none"
         id="path240" /><path
         d="m 16385.6,17898.2 v -385.5 h -389.5 v 385.5 h 389.5"
         style="fill:#f7906e;fill-opacity:1;fill-rule:nonzero;stroke:none"
         id="path242" /><path
         d="m 15998.1,17607 v 291.2 h 387.5 v -243.1 c -255.8,-53.2 -332.8,-48.1 -387.5,-48.1"
         style="fill:#e27462;fill-opacity:1;fill-rule:nonzero;stroke:none"
         id="path244" /><path
         d="m 16007.9,17652.3 c 0,0 -115,-13.6 -183.8,199.7 0,0 -180.2,452.3 49.1,763.8 88.4,120.1 311.9,118.5 438.6,72.1 162.2,-59.3 233.1,-229.3 233.1,-388.8 l -64.6,-296.9 c 0,0 -33.3,-140.9 -134.6,-220.6 0,0 -171.9,-131.5 -337.8,-129.3"
         style="fill:#f69575;fill-opacity:1;fill-rule:nonzero;stroke:none"
         id="path246" /><path
         d="m 15761.4,18323.8 c -66.8,659.9 595.4,481 595.4,481 301.1,-124.1 299.5,-343.7 299.5,-343.7 0,-427.5 -237,-596.7 -237,-596.7 l -34.4,80.7 c 1.6,143.9 -4.4,181.9 -4.4,181.9 -3.4,42 -72.3,-18.8 -68.5,35.9 0,0 -1,58.1 -34.3,117.1 -31,54.8 7.3,132.4 -126.9,222.6 0,0 -310.9,65.1 -351.5,-79.4 l -37.9,-99.4"
         style="fill:#ae6733;fill-opacity:1;fill-rule:nonzero;stroke:none"
         id="path248" /><path
         d="m 16358.9,18014.8 c 10.7,-8.2 24.4,-12.9 41.5,-12.6 46.4,0.6 84.9,44 86,96.8 1,52.6 -35.6,94.9 -81.9,94.2 -21.9,-0.3 -42.1,-10.3 -57.4,-26.2 -22.3,-23.3 -22.9,-66.3 -17.7,-95.8 4.2,-23.7 13.5,-44 29.5,-56.4"
         style="fill:#f69575;fill-opacity:1;fill-rule:nonzero;stroke:none"
         id="path250" /><path
         d="m 16385.8,18144.1 c 2.7,27.7 58.8,1.2 50.3,-14.3 -5,-9.1 -14.8,-15.6 -22.5,-21.9 -10.5,-8.6 -15.7,-16.5 -17.2,-30.2 -0.2,-1.6 -0.5,-6.4 1.1,-7.6 7.3,-5 31,22 36.2,27.8 10.3,11.1 11.7,30.3 6.7,44.2 -5.2,14.7 -14.9,21.7 -30.7,20.8 -12.5,-0.8 -25.4,-1.6 -24.6,-17.3 0,-0.3 0.6,-2.9 0.7,-1.5"
         style="fill:#eb7963;fill-opacity:1;fill-rule:nonzero;stroke:none"
         id="path252" /><path
         d="m 16403.7,18115.4 c -5.8,5.8 -11.4,1 -17.3,-3.3 -5.5,-4.1 -8.6,-9.8 -10,-16.3 -3.3,-14.4 -1.3,-33.7 6.9,-46.2 6.7,-10.2 17.9,-16.3 30.1,-16 16.8,0.5 21.9,15.3 22.5,29.6 0.2,3.8 0.5,12.8 -3.2,15.2 -4.1,2.6 -7,-3.7 -9.6,-6.4 -3.8,-3.6 -9.3,-5 -14.3,-5.4 -9.7,-0.8 -19.1,4.1 -25.1,11.2 -1.1,1.3 -2,2.8 -2.6,4.4 0.1,-9.4 0.5,-11.4 1.5,-6.3 0.7,2.4 1.8,4.6 3.2,6.6 3.9,6.4 10.5,10.9 14.9,17.1 2.1,2.8 6,12.8 3,15.8"
         style="fill:#eb7963;fill-opacity:1;fill-rule:nonzero;stroke:none"
         id="path254" /><path
         d="m 16667.5,15831.4 c 157.9,13.3 224.7,203.5 224.7,203.5 l 145.4,987.2 c 56.5,172.1 -79,287.2 -79,287.2 l -391.5,153.2 c 0,0 -93.5,-197 -345.9,-195.7 0,0 -188.4,-35.9 -343,195.4 l -392.5,-152.9 c 0,0 -135.4,-115.1 -79,-287.2 l 205.3,-1025 c 0,0 7.3,-123.6 183.2,-165.7 175.8,-42.1 0,0 0,0 0,0 427,-114.2 872.3,0"
         style="fill:#f03e58;fill-opacity:1;fill-rule:nonzero;stroke:none"
         id="path256" /><path
         d="m 14388.9,14634.2 382.8,167.1 382.8,167.1 -152.4,-328.7 c 0,0 -30.1,-68.8 -113.9,-105.4 -83.7,-36.5 -154.6,-11.8 -154.6,-11.8 l -344.7,111.7"
         style="fill:#2d457e;fill-opacity:1;fill-rule:nonzero;stroke:none"
         id="path258" /><path
         d="m 12673.3,16258.4 c -296.1,678.4 13.7,1468.4 692,1764.5 678.4,296.2 1468.4,-13.7 1764.5,-692.1 169.7,-388.5 140.1,-813.6 -43.2,-1161.5 -34.2,-72.9 -110.5,-286 7.2,-555.5 l -568.4,-248.1 -568.4,-248.2 c -117.6,269.5 -325.6,358.4 -402.4,382.9 -379.9,102.1 -711.7,369.5 -881.3,758"
         style="fill:#88cef2;fill-opacity:1;fill-rule:nonzero;stroke:none"
         id="path260" /><path
         d="m 14108.8,15620.2 c 124.7,77.8 200.9,62.9 279.9,191.3 109.2,177.6 25.9,417.3 25.4,610.5 -0.5,221.9 125.1,424.8 109.3,647.6 -34.5,486 -490.9,950.2 -989.5,932.9 -90.3,-3.2 -233.3,-6.7 -313.7,-54 46.4,27.2 94.6,52.4 145.1,74.4 678.4,296.2 1468.4,-13.7 1764.5,-692.1 169.7,-388.5 140.1,-813.6 -43.2,-1161.5 -34.2,-72.9 -110.5,-286 7.2,-555.5 L 13957,15117.5 c -82.9,189.9 -210.4,289.9 -305.5,341.1 109.3,38.9 367.5,105.5 457.3,161.6"
         style="fill:#56bfef;fill-opacity:1;fill-rule:nonzero;stroke:none"
         id="path262" /><path
         d="m 14202.6,14552.9 1138.3,496.9 -246.4,564.3 -1138.3,-496.9 246.4,-564.3"
         style="fill:#4267ba;fill-opacity:1;fill-rule:nonzero;stroke:none"
         id="path264" /><path
         d="m 14008,14999.6 1137.5,496.6 -51.4,117.7 -1137.5,-496.5 51.4,-117.8"
         style="fill:#334f8f;fill-opacity:1;fill-rule:nonzero;stroke:none"
         id="path266" /><path
         d="m 14105.5,14776.3 1137.5,496.6 -51.4,117.8 -1137.6,-496.6 51.5,-117.8"
         style="fill:#334f8f;fill-opacity:1;fill-rule:nonzero;stroke:none"
         id="path268" /><path
         d="m 14202.6,14552.9 1137.5,496.5 -51.4,117.8 -1137.6,-496.6 51.5,-117.7"
         style="fill:#334f8f;fill-opacity:1;fill-rule:nonzero;stroke:none"
         id="path270" /><path
         d="m 13891.3,17305 c -26.2,-301.7 -424.3,-413.7 -547.4,-664.1 -42.7,-86.8 -66.5,-192.5 -126.1,-273.7 -121.5,-165.8 -249.1,-79 -322.8,65.2 -140,273.7 -107.1,605.7 9.2,878.8 85.5,200.8 246.3,400.7 478.5,415.6 220.3,14.2 528.9,-158 508.8,-418.4 0,-1.1 -0.1,-2.3 -0.2,-3.4"
         style="fill:#a6d7f4;fill-opacity:1;fill-rule:nonzero;stroke:none"
         id="path272" /><path
         d="m 17103.1,16960.2 c 0,0 -428.9,-994.8 -659.5,-1334.2 0,0 -231.1,10.3 -269.6,152.9 0,0 177.5,707.4 428.1,1265.4 0,0 360.2,339.7 501,-84.1"
         style="fill:#f69575;fill-opacity:1;fill-rule:nonzero;stroke:none"
         id="path274" /><path
         d="m 16265.3,15932.2 c 0,0 -750.1,-127.4 -1074.2,-143 0,0 -66.5,-70 1.8,-121.3 69.4,-52 1198.8,-104.5 1250.7,-41.9 242.2,291.9 -178.3,306.2 -178.3,306.2"
         style="fill:#f69575;fill-opacity:1;fill-rule:nonzero;stroke:none"
         id="path276" /><path
         d="m 16657.3,16907.3 c 90.2,-114.5 255.7,-135.2 369.9,-46.3 114.2,88.9 133.7,253.7 43.5,368.1 -90.1,114.4 -255.7,135.1 -369.9,46.2 -114.1,-88.9 -133.6,-253.7 -43.5,-368"
         style="fill:#f69575;fill-opacity:1;fill-rule:nonzero;stroke:none"
         id="path278" /><path
         d="m 16396.3,16708.8 c 12.4,32.1 53.5,180.5 68.4,213.5 55.6,163.4 163,296.1 236.1,353 114.2,88.9 279.8,68.2 369.9,-46.2 68.3,-86.6 101.4,-203.2 61.6,-325.5 -13.7,-31.6 -87.4,-201.3 -120.3,-283.8 -165.4,-111.3 -408.5,-29.3 -615.7,89"
         style="fill:#f03e58;fill-opacity:1;fill-rule:nonzero;stroke:none"
         id="path280" /><path
         d="m 15263.4,15772.6 -122.8,83.2 -145,62.8 c -20.8,-48.9 59.7,-80.5 59.7,-80.5 -118.4,6.5 -228.7,42.3 -228.7,42.3 -43,5.5 -32.7,-32.2 -32.7,-32.2 52,-34.3 191.9,-64 191.9,-64 -80.9,5.6 -213.8,34.3 -213.8,34.3 -36.1,-1.9 -19.3,-35.3 -19.3,-35.3 56.9,-64.3 218.4,-58.2 218.4,-58.2 -60.8,-4.3 -192.1,19.1 -192.1,19.1 -22.5,-13.1 -12.1,-23.2 -12.1,-23.2 37.3,-58 192.8,-51.7 192.8,-51.7 l -58.3,-0.8 c -79.8,5.9 -51.2,-37.4 -51.2,-37.4 l 41.3,-9.6 c 126.4,-27.2 228.6,8.2 228.6,8.2 l 136.6,26.5 6.7,116.5"
         style="fill:#f69575;fill-opacity:1;fill-rule:nonzero;stroke:none"
         id="path282" /></g></g></svg>
